<svg width="327" height="62" viewBox="0 0 327 62" fill="none" xmlns="http://www.w3.org/2000/svg">
<rect x="24" y="1" width="279" height="60" rx="30" stroke="white"/>
<path d="M106.267 25.768V37H103.531V25.768H106.267ZM113.69 27.976C114.735 27.976 115.567 28.3173 116.186 29C116.815 29.672 117.13 30.6 117.13 31.784V37H114.41V32.152C114.41 31.5547 114.255 31.0907 113.946 30.76C113.636 30.4293 113.22 30.264 112.698 30.264C112.175 30.264 111.759 30.4293 111.45 30.76C111.14 31.0907 110.986 31.5547 110.986 32.152V37H108.25V28.072H110.986V29.256C111.263 28.8613 111.636 28.552 112.106 28.328C112.575 28.0933 113.103 27.976 113.69 27.976ZM122.663 37.128C121.884 37.128 121.191 36.9947 120.583 36.728C119.975 36.4613 119.495 36.0987 119.143 35.64C118.791 35.1707 118.594 34.648 118.551 34.072H121.255C121.287 34.3813 121.431 34.632 121.687 34.824C121.943 35.016 122.258 35.112 122.631 35.112C122.972 35.112 123.234 35.048 123.415 34.92C123.607 34.7813 123.703 34.6053 123.703 34.392C123.703 34.136 123.57 33.9493 123.303 33.832C123.036 33.704 122.604 33.5653 122.007 33.416C121.367 33.2667 120.834 33.112 120.407 32.952C119.98 32.7813 119.612 32.52 119.303 32.168C118.994 31.8053 118.839 31.32 118.839 30.712C118.839 30.2 118.978 29.736 119.255 29.32C119.543 28.8933 119.959 28.5573 120.503 28.312C121.058 28.0667 121.714 27.944 122.471 27.944C123.591 27.944 124.471 28.2213 125.111 28.776C125.762 29.3307 126.135 30.0667 126.231 30.984H123.703C123.66 30.6747 123.522 30.4293 123.287 30.248C123.063 30.0667 122.764 29.976 122.391 29.976C122.071 29.976 121.826 30.04 121.655 30.168C121.484 30.2853 121.399 30.4507 121.399 30.664C121.399 30.92 121.532 31.112 121.799 31.24C122.076 31.368 122.503 31.496 123.079 31.624C123.74 31.7947 124.279 31.9653 124.695 32.136C125.111 32.296 125.474 32.5627 125.783 32.936C126.103 33.2987 126.268 33.7893 126.279 34.408C126.279 34.9307 126.13 35.4 125.831 35.816C125.543 36.2213 125.122 36.5413 124.567 36.776C124.023 37.0107 123.388 37.128 122.663 37.128ZM132.929 34.68V37H131.537C130.545 37 129.772 36.76 129.217 36.28C128.662 35.7893 128.385 34.9947 128.385 33.896V30.344H127.297V28.072H128.385V25.896H131.121V28.072H132.913V30.344H131.121V33.928C131.121 34.1947 131.185 34.3867 131.313 34.504C131.441 34.6213 131.654 34.68 131.953 34.68H132.929ZM133.909 32.52C133.909 31.6027 134.08 30.7973 134.421 30.104C134.773 29.4107 135.248 28.8773 135.845 28.504C136.442 28.1307 137.109 27.944 137.845 27.944C138.474 27.944 139.024 28.072 139.493 28.328C139.973 28.584 140.341 28.92 140.597 29.336V28.072H143.333V37H140.597V35.736C140.33 36.152 139.957 36.488 139.477 36.744C139.008 37 138.458 37.128 137.829 37.128C137.104 37.128 136.442 36.9413 135.845 36.568C135.248 36.184 134.773 35.6453 134.421 34.952C134.08 34.248 133.909 33.4373 133.909 32.52ZM140.597 32.536C140.597 31.8533 140.405 31.3147 140.021 30.92C139.648 30.5253 139.189 30.328 138.645 30.328C138.101 30.328 137.637 30.5253 137.253 30.92C136.88 31.304 136.693 31.8373 136.693 32.52C136.693 33.2027 136.88 33.7467 137.253 34.152C137.637 34.5467 138.101 34.744 138.645 34.744C139.189 34.744 139.648 34.5467 140.021 34.152C140.405 33.7573 140.597 33.2187 140.597 32.536ZM148.048 25.16V37H145.312V25.16H148.048ZM152.767 25.16V37H150.031V25.16H152.767ZM168.188 37H165.452L160.876 30.072V37H158.14V25.768H160.876L165.452 32.728V25.768H168.188V37ZM178.988 28.072V37H176.252V35.784C175.974 36.1787 175.596 36.4987 175.116 36.744C174.646 36.9787 174.124 37.096 173.548 37.096C172.865 37.096 172.262 36.9467 171.74 36.648C171.217 36.3387 170.812 35.896 170.524 35.32C170.236 34.744 170.092 34.0667 170.092 33.288V28.072H172.812V32.92C172.812 33.5173 172.966 33.9813 173.276 34.312C173.585 34.6427 174.001 34.808 174.524 34.808C175.057 34.808 175.478 34.6427 175.788 34.312C176.097 33.9813 176.252 33.5173 176.252 32.92V28.072H178.988ZM192.345 27.976C193.454 27.976 194.334 28.312 194.985 28.984C195.646 29.656 195.977 30.5893 195.977 31.784V37H193.257V32.152C193.257 31.576 193.102 31.1333 192.793 30.824C192.494 30.504 192.078 30.344 191.545 30.344C191.012 30.344 190.59 30.504 190.281 30.824C189.982 31.1333 189.833 31.576 189.833 32.152V37H187.113V32.152C187.113 31.576 186.958 31.1333 186.649 30.824C186.35 30.504 185.934 30.344 185.401 30.344C184.868 30.344 184.446 30.504 184.137 30.824C183.838 31.1333 183.689 31.576 183.689 32.152V37H180.953V28.072H183.689V29.192C183.966 28.8187 184.329 28.5253 184.777 28.312C185.225 28.088 185.732 27.976 186.297 27.976C186.969 27.976 187.566 28.12 188.089 28.408C188.622 28.696 189.038 29.1067 189.337 29.64C189.646 29.1493 190.068 28.7493 190.601 28.44C191.134 28.1307 191.716 27.976 192.345 27.976ZM200.626 29.336C200.882 28.92 201.25 28.584 201.73 28.328C202.21 28.072 202.76 27.944 203.378 27.944C204.114 27.944 204.781 28.1307 205.378 28.504C205.976 28.8773 206.445 29.4107 206.786 30.104C207.138 30.7973 207.314 31.6027 207.314 32.52C207.314 33.4373 207.138 34.248 206.786 34.952C206.445 35.6453 205.976 36.184 205.378 36.568C204.781 36.9413 204.114 37.128 203.378 37.128C202.749 37.128 202.2 37.0053 201.73 36.76C201.261 36.504 200.893 36.168 200.626 35.752V37H197.89V25.16H200.626V29.336ZM204.53 32.52C204.53 31.8373 204.338 31.304 203.954 30.92C203.581 30.5253 203.117 30.328 202.562 30.328C202.018 30.328 201.554 30.5253 201.17 30.92C200.797 31.3147 200.61 31.8533 200.61 32.536C200.61 33.2187 200.797 33.7573 201.17 34.152C201.554 34.5467 202.018 34.744 202.562 34.744C203.106 34.744 203.57 34.5467 203.954 34.152C204.338 33.7467 204.53 33.2027 204.53 32.52ZM217.166 32.392C217.166 32.648 217.15 32.9147 217.118 33.192H210.926C210.968 33.7467 211.144 34.1733 211.454 34.472C211.774 34.76 212.163 34.904 212.622 34.904C213.304 34.904 213.779 34.616 214.046 34.04H216.958C216.808 34.6267 216.536 35.1547 216.142 35.624C215.758 36.0933 215.272 36.4613 214.686 36.728C214.099 36.9947 213.443 37.128 212.718 37.128C211.843 37.128 211.064 36.9413 210.382 36.568C209.699 36.1947 209.166 35.6613 208.782 34.968C208.398 34.2747 208.206 33.464 208.206 32.536C208.206 31.608 208.392 30.7973 208.766 30.104C209.15 29.4107 209.683 28.8773 210.366 28.504C211.048 28.1307 211.832 27.944 212.718 27.944C213.582 27.944 214.35 28.1253 215.022 28.488C215.694 28.8507 216.216 29.368 216.59 30.04C216.974 30.712 217.166 31.496 217.166 32.392ZM214.366 31.672C214.366 31.2027 214.206 30.8293 213.886 30.552C213.566 30.2747 213.166 30.136 212.686 30.136C212.227 30.136 211.838 30.2693 211.518 30.536C211.208 30.8027 211.016 31.1813 210.942 31.672H214.366ZM221.345 29.56C221.665 29.0693 222.065 28.6853 222.545 28.408C223.025 28.12 223.559 27.976 224.145 27.976V30.872H223.393C222.711 30.872 222.199 31.0213 221.857 31.32C221.516 31.608 221.345 32.12 221.345 32.856V37H218.609V28.072H221.345V29.56Z" fill="white"/>
</svg>
