<svg width="185" height="72" viewBox="0 0 185 72" fill="none" xmlns="http://www.w3.org/2000/svg">
<path d="M10.7451 15.552C10.7451 13.888 11.1051 12.408 11.8251 11.112C12.5451 9.8 13.5451 8.784 14.8251 8.064C16.1211 7.328 17.5851 6.96 19.2171 6.96C21.2171 6.96 22.9291 7.488 24.3531 8.544C25.7771 9.6 26.7291 11.04 27.2091 12.864H22.6971C22.3611 12.16 21.8811 11.624 21.2571 11.256C20.6491 10.888 19.9531 10.704 19.1691 10.704C17.9051 10.704 16.8811 11.144 16.0971 12.024C15.3131 12.904 14.9211 14.08 14.9211 15.552C14.9211 17.024 15.3131 18.2 16.0971 19.08C16.8811 19.96 17.9051 20.4 19.1691 20.4C19.9531 20.4 20.6491 20.216 21.2571 19.848C21.8811 19.48 22.3611 18.944 22.6971 18.24H27.2091C26.7291 20.064 25.7771 21.504 24.3531 22.56C22.9291 23.6 21.2171 24.12 19.2171 24.12C17.5851 24.12 16.1211 23.76 14.8251 23.04C13.5451 22.304 12.5451 21.288 11.8251 19.992C11.1051 18.696 10.7451 17.216 10.7451 15.552ZM35.8184 24.192C34.5064 24.192 33.3224 23.912 32.2664 23.352C31.2264 22.792 30.4024 21.992 29.7944 20.952C29.2024 19.912 28.9064 18.696 28.9064 17.304C28.9064 15.928 29.2104 14.72 29.8184 13.68C30.4264 12.624 31.2584 11.816 32.3144 11.256C33.3704 10.696 34.5544 10.416 35.8664 10.416C37.1784 10.416 38.3624 10.696 39.4184 11.256C40.4744 11.816 41.3064 12.624 41.9144 13.68C42.5224 14.72 42.8264 15.928 42.8264 17.304C42.8264 18.68 42.5144 19.896 41.8904 20.952C41.2824 21.992 40.4424 22.792 39.3704 23.352C38.3144 23.912 37.1304 24.192 35.8184 24.192ZM35.8184 20.64C36.6024 20.64 37.2664 20.352 37.8104 19.776C38.3704 19.2 38.6504 18.376 38.6504 17.304C38.6504 16.232 38.3784 15.408 37.8344 14.832C37.3064 14.256 36.6504 13.968 35.8664 13.968C35.0664 13.968 34.4024 14.256 33.8744 14.832C33.3464 15.392 33.0824 16.216 33.0824 17.304C33.0824 18.376 33.3384 19.2 33.8504 19.776C34.3784 20.352 35.0344 20.64 35.8184 20.64ZM62.0916 10.464C63.7556 10.464 65.0756 10.968 66.0516 11.976C67.0436 12.984 67.5396 14.384 67.5396 16.176V24H63.4596V16.728C63.4596 15.864 63.2276 15.2 62.7636 14.736C62.3156 14.256 61.6916 14.016 60.8916 14.016C60.0916 14.016 59.4596 14.256 58.9956 14.736C58.5476 15.2 58.3236 15.864 58.3236 16.728V24H54.2436V16.728C54.2436 15.864 54.0116 15.2 53.5476 14.736C53.0996 14.256 52.4756 14.016 51.6756 14.016C50.8756 14.016 50.2436 14.256 49.7796 14.736C49.3316 15.2 49.1076 15.864 49.1076 16.728V24H45.0036V10.608H49.1076V12.288C49.5236 11.728 50.0676 11.288 50.7396 10.968C51.4116 10.632 52.1716 10.464 53.0196 10.464C54.0276 10.464 54.9236 10.68 55.7076 11.112C56.5076 11.544 57.1316 12.16 57.5796 12.96C58.0436 12.224 58.6756 11.624 59.4756 11.16C60.2756 10.696 61.1476 10.464 62.0916 10.464ZM72.4739 9.216C71.7539 9.216 71.1619 9.008 70.6979 8.592C70.2499 8.16 70.0259 7.632 70.0259 7.008C70.0259 6.368 70.2499 5.84 70.6979 5.424C71.1619 4.992 71.7539 4.776 72.4739 4.776C73.1779 4.776 73.7539 4.992 74.2019 5.424C74.6659 5.84 74.8979 6.368 74.8979 7.008C74.8979 7.632 74.6659 8.16 74.2019 8.592C73.7539 9.008 73.1779 9.216 72.4739 9.216ZM74.5139 10.608V24H70.4099V10.608H74.5139ZM85.648 10.464C87.216 10.464 88.464 10.976 89.392 12C90.336 13.008 90.808 14.4 90.808 16.176V24H86.728V16.728C86.728 15.832 86.496 15.136 86.032 14.64C85.568 14.144 84.944 13.896 84.16 13.896C83.376 13.896 82.752 14.144 82.288 14.64C81.824 15.136 81.592 15.832 81.592 16.728V24H77.488V10.608H81.592V12.384C82.008 11.792 82.568 11.328 83.272 10.992C83.976 10.64 84.768 10.464 85.648 10.464ZM98.7479 10.416C99.6919 10.416 100.516 10.608 101.22 10.992C101.94 11.376 102.492 11.88 102.876 12.504V10.608H106.98V23.976C106.98 25.208 106.732 26.32 106.236 27.312C105.756 28.32 105.012 29.12 104.004 29.712C103.012 30.304 101.772 30.6 100.284 30.6C98.2999 30.6 96.6919 30.128 95.4599 29.184C94.2279 28.256 93.5239 26.992 93.3479 25.392H97.4039C97.5319 25.904 97.8359 26.304 98.3159 26.592C98.7959 26.896 99.3879 27.048 100.092 27.048C100.94 27.048 101.612 26.8 102.108 26.304C102.62 25.824 102.876 25.048 102.876 23.976V22.08C102.476 22.704 101.924 23.216 101.22 23.616C100.516 24 99.6919 24.192 98.7479 24.192C97.6439 24.192 96.6439 23.912 95.7479 23.352C94.8519 22.776 94.1399 21.968 93.6119 20.928C93.0999 19.872 92.8439 18.656 92.8439 17.28C92.8439 15.904 93.0999 14.696 93.6119 13.656C94.1399 12.616 94.8519 11.816 95.7479 11.256C96.6439 10.696 97.6439 10.416 98.7479 10.416ZM102.876 17.304C102.876 16.28 102.588 15.472 102.012 14.88C101.452 14.288 100.764 13.992 99.9479 13.992C99.1319 13.992 98.4359 14.288 97.8599 14.88C97.2999 15.456 97.0199 16.256 97.0199 17.28C97.0199 18.304 97.2999 19.12 97.8599 19.728C98.4359 20.32 99.1319 20.616 99.9479 20.616C100.764 20.616 101.452 20.32 102.012 19.728C102.588 19.136 102.876 18.328 102.876 17.304ZM121.131 24.168C119.899 24.168 118.795 23.968 117.819 23.568C116.843 23.168 116.059 22.576 115.467 21.792C114.891 21.008 114.587 20.064 114.555 18.96H118.923C118.987 19.584 119.203 20.064 119.571 20.4C119.939 20.72 120.419 20.88 121.011 20.88C121.619 20.88 122.099 20.744 122.451 20.472C122.803 20.184 122.979 19.792 122.979 19.296C122.979 18.88 122.835 18.536 122.547 18.264C122.275 17.992 121.931 17.768 121.515 17.592C121.115 17.416 120.539 17.216 119.787 16.992C118.699 16.656 117.811 16.32 117.123 15.984C116.435 15.648 115.843 15.152 115.347 14.496C114.851 13.84 114.603 12.984 114.603 11.928C114.603 10.36 115.171 9.136 116.307 8.256C117.443 7.36 118.923 6.912 120.747 6.912C122.603 6.912 124.099 7.36 125.235 8.256C126.371 9.136 126.979 10.368 127.059 11.952H122.619C122.587 11.408 122.387 10.984 122.019 10.68C121.651 10.36 121.179 10.2 120.603 10.2C120.107 10.2 119.707 10.336 119.403 10.608C119.099 10.864 118.947 11.24 118.947 11.736C118.947 12.28 119.203 12.704 119.715 13.008C120.227 13.312 121.027 13.64 122.115 13.992C123.203 14.36 124.083 14.712 124.755 15.048C125.443 15.384 126.035 15.872 126.531 16.512C127.027 17.152 127.275 17.976 127.275 18.984C127.275 19.944 127.027 20.816 126.531 21.6C126.051 22.384 125.347 23.008 124.419 23.472C123.491 23.936 122.395 24.168 121.131 24.168ZM135.897 24.192C134.585 24.192 133.401 23.912 132.345 23.352C131.305 22.792 130.481 21.992 129.873 20.952C129.281 19.912 128.985 18.696 128.985 17.304C128.985 15.928 129.289 14.72 129.896 13.68C130.505 12.624 131.337 11.816 132.393 11.256C133.449 10.696 134.633 10.416 135.945 10.416C137.257 10.416 138.441 10.696 139.497 11.256C140.553 11.816 141.385 12.624 141.993 13.68C142.601 14.72 142.905 15.928 142.905 17.304C142.905 18.68 142.593 19.896 141.969 20.952C141.361 21.992 140.521 22.792 139.449 23.352C138.393 23.912 137.209 24.192 135.897 24.192ZM135.897 20.64C136.681 20.64 137.345 20.352 137.889 19.776C138.449 19.2 138.729 18.376 138.729 17.304C138.729 16.232 138.457 15.408 137.913 14.832C137.385 14.256 136.729 13.968 135.945 13.968C135.145 13.968 134.481 14.256 133.953 14.832C133.425 15.392 133.161 16.216 133.161 17.304C133.161 18.376 133.417 19.2 133.929 19.776C134.457 20.352 135.113 20.64 135.897 20.64ZM151.178 24.192C149.866 24.192 148.682 23.912 147.626 23.352C146.586 22.792 145.762 21.992 145.154 20.952C144.562 19.912 144.266 18.696 144.266 17.304C144.266 15.928 144.57 14.72 145.178 13.68C145.786 12.624 146.618 11.816 147.674 11.256C148.73 10.696 149.914 10.416 151.226 10.416C152.538 10.416 153.722 10.696 154.778 11.256C155.834 11.816 156.666 12.624 157.274 13.68C157.882 14.72 158.186 15.928 158.186 17.304C158.186 18.68 157.874 19.896 157.25 20.952C156.642 21.992 155.802 22.792 154.73 23.352C153.674 23.912 152.49 24.192 151.178 24.192ZM151.178 20.64C151.962 20.64 152.626 20.352 153.17 19.776C153.73 19.2 154.01 18.376 154.01 17.304C154.01 16.232 153.738 15.408 153.194 14.832C152.666 14.256 152.01 13.968 151.226 13.968C150.426 13.968 149.762 14.256 149.234 14.832C148.706 15.392 148.442 16.216 148.442 17.304C148.442 18.376 148.698 19.2 149.21 19.776C149.738 20.352 150.394 20.64 151.178 20.64ZM168.523 10.464C170.091 10.464 171.339 10.976 172.267 12C173.211 13.008 173.683 14.4 173.683 16.176V24H169.603V16.728C169.603 15.832 169.371 15.136 168.907 14.64C168.443 14.144 167.819 13.896 167.035 13.896C166.251 13.896 165.627 14.144 165.163 14.64C164.699 15.136 164.467 15.832 164.467 16.728V24H160.363V10.608H164.467V12.384C164.883 11.792 165.443 11.328 166.147 10.992C166.851 10.64 167.643 10.464 168.523 10.464Z" fill="white"/>
<path d="M6.65875 66.2417H6.51816V66.3822C6.51816 67.4139 5.36103 68.0459 3.9768 68.0459C1.4841 68.0459 0.5 66.7117 0.5 64.2053V59.9541H2.40332V64.3295C2.40332 65.6475 3.05218 66.2471 4.43641 66.2471C5.82064 66.2471 6.65875 65.3288 6.65875 64.0108V59.9487H8.57829V68.2728C8.57829 70.6496 7.06969 72 4.43641 72C2.04104 72 0.591922 70.9521 0.591922 68.7481H2.49524C2.49524 69.8717 3.17654 70.3795 4.49589 70.3795C5.9396 70.3795 6.65334 69.7313 6.65334 68.4294V66.2255L6.65875 66.2417Z" fill="white"/>
<path d="M13.342 64.2161C13.3907 65.4369 14.2612 66.3282 15.6617 66.3282C16.7269 66.3282 17.4406 65.788 17.6785 64.9939H19.6305C19.279 66.9602 17.8029 68.0567 15.613 68.0567C13.1041 68.0567 11.4387 66.4092 11.4387 63.9352C11.4387 61.4612 13.1041 59.8136 15.613 59.8136C17.9327 59.8136 19.6305 61.2559 19.6305 63.7461V64.2215H13.342V64.2161ZM17.6299 62.9305C17.4731 61.9797 16.7431 61.3585 15.6292 61.3585C14.5153 61.3585 13.7259 62.0554 13.4393 62.9305H17.6299Z" fill="white"/>
<path d="M26.0109 59.792C27.1843 59.792 28.1197 59.9217 28.9795 60.235V61.9473C28.4063 61.7421 27.233 61.3747 25.8541 61.3747C24.8052 61.3747 24.3131 61.6286 24.3131 62.0878C24.3131 63.4652 29.3147 62.6766 29.3147 65.5287C29.3147 67.1762 28.0278 68.0675 25.7136 68.0675C24.5402 68.0675 23.6048 67.9379 22.7288 67.6246V65.9122C23.302 66.1175 24.4753 66.4848 25.8541 66.4848C26.9193 66.4848 27.3952 66.1229 27.3952 65.6583C27.3952 64.2971 22.4098 65.0695 22.4098 62.2174C22.4098 60.5699 23.6967 59.792 26.0164 59.792H26.0109Z" fill="white"/>
<path d="M33.17 65.9122C33.8838 65.9122 34.3434 66.339 34.3434 66.9764C34.3434 68.181 33.4079 69.2289 32.4076 69.6232L32.0129 69.0506C32.3968 68.8292 32.6455 68.3862 32.678 67.9703C32.267 67.8136 32.0129 67.4463 32.0129 66.971C32.0129 66.339 32.4725 65.9068 33.17 65.9068V65.9122Z" fill="white"/>
<path d="M43.6923 56.632C44.3574 56.632 44.8008 57.0425 44.8008 57.6637C44.8008 58.2849 44.3574 58.6955 43.6923 58.6955C43.0273 58.6955 42.5839 58.2849 42.5839 57.6637C42.5839 57.0425 43.0273 56.632 43.6923 56.632ZM42.7407 59.9649H44.644V67.8947H42.7407V59.9649Z" fill="white"/>
<path d="M47.645 63.0277V58.3174H49.5483V60.0621H52.2789V61.7583H49.5483V63.314C49.5483 65.2316 50.2134 66.0257 52.2789 66.0257V67.8947C48.9589 67.8947 47.645 66.3066 47.645 63.0277Z" fill="white"/>
<path d="M55.042 56H56.6587L56.437 60.1053H55.2636L55.042 56Z" fill="white"/>
<path d="M63.0932 59.792C64.2666 59.792 65.202 59.9217 66.0617 60.235V61.9473C65.4886 61.7421 64.3152 61.3747 62.9364 61.3747C61.8874 61.3747 61.3954 61.6286 61.3954 62.0878C61.3954 63.4652 66.397 62.6766 66.397 65.5287C66.397 67.1762 65.1101 68.0675 62.7904 68.0675C61.617 68.0675 60.6816 67.9379 59.8057 67.6246V65.9122C60.3788 66.1175 61.5522 66.4848 62.931 66.4848C63.9962 66.4848 64.472 66.1229 64.472 65.6583C64.472 64.2971 59.4866 65.0695 59.4866 62.2174C59.4866 60.5699 60.7735 59.792 63.0878 59.792H63.0932Z" fill="white"/>
<path d="M80.7313 66.2417H80.5907V66.3822C80.5907 67.4139 79.4336 68.0459 78.0494 68.0459C75.5567 68.0459 74.5726 66.7117 74.5726 64.2053V59.9541H76.4759V64.3295C76.4759 65.6475 77.1248 66.2471 78.509 66.2471C79.8932 66.2471 80.7313 65.3288 80.7313 64.0108V59.9487H82.6509V68.2728C82.6509 70.6496 81.1423 72 78.509 72C76.1136 72 74.6699 70.9521 74.6699 68.7481H76.5732C76.5732 69.8717 77.2545 70.3795 78.5739 70.3795C80.0176 70.3795 80.7313 69.7313 80.7313 68.4294V66.2255V66.2417Z" fill="white"/>
<path d="M89.6802 59.8082C92.1729 59.8082 93.8545 61.4558 93.8545 63.9298C93.8545 66.4038 92.1729 68.0513 89.6802 68.0513C87.1875 68.0513 85.5059 66.4038 85.5059 63.9298C85.5059 61.4558 87.1712 59.8082 89.6802 59.8082ZM89.6802 66.2633C91.032 66.2633 91.9512 65.3126 91.9512 63.9298C91.9512 62.5469 91.032 61.5962 89.6802 61.5962C88.3284 61.5962 87.3929 62.5307 87.3929 63.9298C87.3929 65.3288 88.3122 66.2633 89.6802 66.2633Z" fill="white"/>
<path d="M100.716 66.2633C102.003 66.2633 102.857 65.4369 102.857 64.1837V59.9649H104.777V64.054C104.777 66.447 103.176 68.0513 100.776 68.0513C98.3749 68.0513 96.6987 66.447 96.6987 64.054V59.9649H98.602V64.1837C98.602 65.4207 99.4617 66.2633 100.711 66.2633H100.716Z" fill="white"/>
<path d="M107.637 67.8947V64.1999C107.637 61.4558 109.287 59.8839 111.877 59.8839V61.7421C110.481 61.7583 109.546 62.5847 109.546 63.9622V67.8947H107.637Z" fill="white"/>
<path d="M120.036 67.8947V63.8055C120.036 61.4126 121.626 59.8082 124.113 59.8082C126.6 59.8082 128.114 61.4072 128.114 63.8055V67.8947H126.195V63.6759C126.195 62.4227 125.34 61.58 124.053 61.58C122.767 61.58 121.945 62.4389 121.945 63.6759V67.8947H120.036Z" fill="white"/>
<path d="M134.987 66.2633C136.274 66.2633 137.128 65.4369 137.128 64.1837V59.9649H139.047V64.054C139.047 66.447 137.447 68.0513 135.046 68.0513C132.645 68.0513 130.969 66.447 130.969 64.054V59.9649H132.873V64.1837C132.873 65.4207 133.727 66.2633 134.981 66.2633H134.987Z" fill="white"/>
<path d="M155.193 63.8001V67.8893H153.29V63.6705C153.29 62.2444 152.479 61.5908 151.462 61.5908C150.175 61.5908 149.51 62.4659 149.51 63.6705V67.8893H147.591V63.6705C147.591 62.4659 146.926 61.5908 145.639 61.5908C144.622 61.5908 143.811 62.239 143.811 63.6705V67.8893H141.908V63.8001C141.908 61.2127 143.146 59.8028 145.482 59.8028C147.369 59.8028 148.483 60.975 148.483 62.3741H148.64C148.624 60.9804 149.737 59.8028 151.625 59.8028C153.96 59.8028 155.199 61.2127 155.199 63.8001H155.193Z" fill="white"/>
<path d="M162.228 68.0513C159.719 68.0513 158.054 66.4038 158.054 63.9298V56H159.957V61.58L160.098 61.5638V61.4234C160.098 60.6941 161.017 59.8028 162.731 59.8028C164.904 59.8028 166.397 61.391 166.397 63.8001C166.397 66.4632 164.731 68.0513 162.223 68.0513H162.228ZM162.26 61.5962C160.654 61.5962 159.957 62.5307 159.957 63.9298C159.957 65.3288 160.833 66.2633 162.228 66.2633C163.623 66.2633 164.499 65.3288 164.499 63.9298C164.499 62.5307 163.645 61.5962 162.26 61.5962Z" fill="white"/>
<path d="M171.117 64.2161C171.166 65.4369 172.037 66.3282 173.437 66.3282C174.502 66.3282 175.216 65.788 175.454 64.9939H177.406C177.054 66.9602 175.578 68.0567 173.388 68.0567C170.879 68.0567 169.214 66.4092 169.214 63.9352C169.214 61.4612 170.879 59.8136 173.388 59.8136C175.708 59.8136 177.406 61.2559 177.406 63.7461V64.2215H171.117V64.2161ZM175.405 62.9305C175.248 61.9797 174.518 61.3585 173.405 61.3585C172.291 61.3585 171.501 62.0554 171.215 62.9305H175.405Z" fill="white"/>
<path d="M182.164 67.8947H180.261V64.1999C180.261 61.4558 181.91 59.8839 184.5 59.8839V61.7421C183.105 61.7583 182.164 62.5847 182.164 63.9622V67.8947Z" fill="white"/>
</svg>
